{"asset":{"version":"2.0","generator":"Blockbench 4.7.4 glTF exporter"},"scenes":[{"nodes":[15],"name":"blockbench_export"}],"scene":0,"nodes":[{"translation":[-0.09375,-0.75390625,0],"name":"head","mesh":0},{"translation":[-0.09375,-0.75390625,0],"name":"hair","mesh":1},{"translation":[0,-0.16015625,0],"name":"glasses","mesh":2},{"translation":[0,0.56640625,0],"name":"head","children":[0,1,2]},{"translation":[0.0625,-0.75,0],"name":"cube","mesh":3},{"translation":[-0.15625,0.5625,0],"name":"left_arm","children":[4]},{"translation":[-0.09375,-0.59375,0],"name":"cube","mesh":4},{"translation":[0,0.40625,0],"name":"body","children":[6]},{"translation":[-0.171875,-0.4375,0],"name":"cube","mesh":5},{"translation":[0.078125,0.25,0],"name":"right_leg","children":[8]},{"translation":[-0.015625,-0.4375,0],"name":"cube","mesh":6},{"translation":[-0.078125,0.25,0],"name":"left_leg","children":[10]},{"translation":[-0.25,-0.75,0],"name":"cube","mesh":7},{"translation":[0.15625,0.5625,0],"name":"right_arm","children":[12]},{"name":"root","children":[3,5,7,9,11,13]},{"children":[14]}],"bufferViews":[{"buffer":0,"byteOffset":0,"byteLength":288,"target":34962,"byteStride":12},{"buffer":0,"byteOffset":288,"byteLength":288,"target":34962,"byteStride":12},{"buffer":0,"byteOffset":576,"byteLength":192,"target":34962,"byteStride":8},{"buffer":0,"byteOffset":768,"byteLength":60,"target":34963},{"buffer":0,"byteOffset":828,"byteLength":12,"target":34963},{"buffer":0,"byteOffset":840,"byteLength":288,"target":34962,"byteStride":12},{"buffer":0,"byteOffset":1128,"byteLength":288,"target":34962,"byteStride":12},{"buffer":0,"byteOffset":1416,"byteLength":192,"target":34962,"byteStride":8},{"buffer":0,"byteOffset":1608,"byteLength":72,"target":34963},{"buffer":0,"byteOffset":1680,"byteLength":288,"target":34962,"byteStride":12},{"buffer":0,"byteOffset":1968,"byteLength":288,"target":34962,"byteStride":12},{"buffer":0,"byteOffset":2256,"byteLength":192,"target":34962,"byteStride":8},{"buffer":0,"byteOffset":2448,"byteLength":12,"target":34963},{"buffer":0,"byteOffset":2460,"byteLength":12,"target":34963},{"buffer":0,"byteOffset":2472,"byteLength":12,"target":34963},{"buffer":0,"byteOffset":2484,"byteLength":12,"target":34963},{"buffer":0,"byteOffset":2496,"byteLength":12,"target":34963},{"buffer":0,"byteOffset":2508,"byteLength":12,"target":34963},{"buffer":0,"byteOffset":2520,"byteLength":288,"target":34962,"byteStride":12},{"buffer":0,"byteOffset":2808,"byteLength":288,"target":34962,"byteStride":12},{"buffer":0,"byteOffset":3096,"byteLength":192,"target":34962,"byteStride":8},{"buffer":0,"byteOffset":3288,"byteLength":72,"target":34963},{"buffer":0,"byteOffset":3360,"byteLength":288,"target":34962,"byteStride":12},{"buffer":0,"byteOffset":3648,"byteLength":288,"target":34962,"byteStride":12},{"buffer":0,"byteOffset":3936,"byteLength":192,"target":34962,"byteStride":8},{"buffer":0,"byteOffset":4128,"byteLength":72,"target":34963},{"buffer":0,"byteOffset":4200,"byteLength":288,"target":34962,"byteStride":12},{"buffer":0,"byteOffset":4488,"byteLength":288,"target":34962,"byteStride":12},{"buffer":0,"byteOffset":4776,"byteLength":192,"target":34962,"byteStride":8},{"buffer":0,"byteOffset":4968,"byteLength":72,"target":34963},{"buffer":0,"byteOffset":5040,"byteLength":288,"target":34962,"byteStride":12},{"buffer":0,"byteOffset":5328,"byteLength":288,"target":34962,"byteStride":12},{"buffer":0,"byteOffset":5616,"byteLength":192,"target":34962,"byteStride":8},{"buffer":0,"byteOffset":5808,"byteLength":72,"target":34963},{"buffer":0,"byteOffset":5880,"byteLength":288,"target":34962,"byteStride":12},{"buffer":0,"byteOffset":6168,"byteLength":288,"target":34962,"byteStride":12},{"buffer":0,"byteOffset":6456,"byteLength":192,"target":34962,"byteStride":8},{"buffer":0,"byteOffset":6648,"byteLength":72,"target":34963},{"buffer":0,"byteOffset":6720,"byteLength":64},{"buffer":0,"byteOffset":6784,"byteLength":256},{"buffer":0,"byteOffset":7040,"byteLength":4},{"buffer":0,"byteOffset":7044,"byteLength":12},{"buffer":0,"byteOffset":7056,"byteLength":4},{"buffer":0,"byteOffset":7060,"byteLength":12},{"buffer":0,"byteOffset":7072,"byteLength":92},{"buffer":0,"byteOffset":7164,"byteLength":368},{"buffer":0,"byteOffset":7532,"byteLength":92},{"buffer":0,"byteOffset":7624,"byteLength":276},{"buffer":0,"byteOffset":7900,"byteLength":4},{"buffer":0,"byteOffset":7904,"byteLength":12},{"buffer":0,"byteOffset":7916,"byteLength":48},{"buffer":0,"byteOffset":7964,"byteLength":192},{"buffer":0,"byteOffset":8156,"byteLength":4},{"buffer":0,"byteOffset":8160,"byteLength":12},{"buffer":0,"byteOffset":8172,"byteLength":4},{"buffer":0,"byteOffset":8176,"byteLength":12},{"buffer":0,"byteOffset":8188,"byteLength":4},{"buffer":0,"byteOffset":8192,"byteLength":16},{"buffer":0,"byteOffset":8208,"byteLength":4},{"buffer":0,"byteOffset":8212,"byteLength":12},{"buffer":0,"byteOffset":8224,"byteLength":4},{"buffer":0,"byteOffset":8228,"byteLength":12},{"buffer":0,"byteOffset":8240,"byteLength":4},{"buffer":0,"byteOffset":8244,"byteLength":16},{"buffer":0,"byteOffset":8260,"byteLength":4},{"buffer":0,"byteOffset":8264,"byteLength":12},{"buffer":0,"byteOffset":8276,"byteLength":4},{"buffer":0,"byteOffset":8280,"byteLength":12},{"buffer":0,"byteOffset":8292,"byteLength":4},{"buffer":0,"byteOffset":8296,"byteLength":16},{"buffer":0,"byteOffset":8312,"byteLength":4},{"buffer":0,"byteOffset":8316,"byteLength":12},{"buffer":0,"byteOffset":8328,"byteLength":4},{"buffer":0,"byteOffset":8332,"byteLength":12},{"buffer":0,"byteOffset":8344,"byteLength":180},{"buffer":0,"byteOffset":8524,"byteLength":720},{"buffer":0,"byteOffset":9244,"byteLength":8},{"buffer":0,"byteOffset":9252,"byteLength":24},{"buffer":0,"byteOffset":9276,"byteLength":8},{"buffer":0,"byteOffset":9284,"byteLength":24},{"buffer":0,"byteOffset":9308,"byteLength":184},{"buffer":0,"byteOffset":9492,"byteLength":736},{"buffer":0,"byteOffset":10228,"byteLength":8},{"buffer":0,"byteOffset":10236,"byteLength":24},{"buffer":0,"byteOffset":10260,"byteLength":8},{"buffer":0,"byteOffset":10268,"byteLength":24},{"buffer":0,"byteOffset":10292,"byteLength":184},{"buffer":0,"byteOffset":10476,"byteLength":736},{"buffer":0,"byteOffset":11212,"byteLength":8},{"buffer":0,"byteOffset":11220,"byteLength":24},{"buffer":0,"byteOffset":11244,"byteLength":8},{"buffer":0,"byteOffset":11252,"byteLength":24},{"buffer":0,"byteOffset":11276,"byteLength":8},{"buffer":0,"byteOffset":11284,"byteLength":32},{"buffer":0,"byteOffset":11316,"byteLength":8},{"buffer":0,"byteOffset":11324,"byteLength":24},{"buffer":0,"byteOffset":11348,"byteLength":8},{"buffer":0,"byteOffset":11356,"byteLength":24},{"buffer":0,"byteOffset":11380,"byteLength":8},{"buffer":0,"byteOffset":11388,"byteLength":32},{"buffer":0,"byteOffset":11420,"byteLength":8},{"buffer":0,"byteOffset":11428,"byteLength":24},{"buffer":0,"byteOffset":11452,"byteLength":8},{"buffer":0,"byteOffset":11460,"byteLength":24},{"buffer":0,"byteOffset":11484,"byteLength":8},{"buffer":0,"byteOffset":11492,"byteLength":32},{"buffer":0,"byteOffset":11524,"byteLength":8},{"buffer":0,"byteOffset":11532,"byteLength":24},{"buffer":0,"byteOffset":11556,"byteLength":8},{"buffer":0,"byteOffset":11564,"byteLength":24}],"buffers":[{"byteLength":11588,"uri":"data:application/octet-stream;base64,"}],"accessors":[{"bufferView":0,"componentType":5126,"count":24,"max":[0.28125,1.125,0.1875],"min":[-0.09375,0.75,-0.1875],"type":"VEC3"},{"bufferView":1,"componentType":5126,"count":24,"max":[1,1,1],"min":[-1,-1,-1],"type":"VEC3"},{"bufferView":2,"componentType":5126,"count":24,"max":[0.6328125,0.625],"min":[0,0],"type":"VEC2"},{"bufferView":3,"componentType":5123,"count":30,"max":[19],"min":[0],"type":"SCALAR"},{"bufferView":4,"componentType":5123,"count":6,"max":[23],"min":[20],"type":"SCALAR"},{"bufferView":5,"componentType":5126,"count":24,"max":[0.296875,1.140625,0.203125],"min":[-0.109375,0.75,-0.203125],"type":"VEC3"},{"bufferView":6,"componentType":5126,"count":24,"max":[1,1,1],"min":[-1,-1,-1],"type":"VEC3"},{"bufferView":7,"componentType":5126,"count":24,"max":[0.953125,0.984375],"min":[0,0],"type":"VEC2"},{"bufferView":8,"componentType":5123,"count":36,"max":[23],"min":[0],"type":"SCALAR"},{"bufferView":9,"componentType":5126,"count":24,"max":[0.1875,0.390625,-0.19368749856948853],"min":[-0.1875,0.265625,-0.19374999403953552],"type":"VEC3"},{"bufferView":10,"componentType":5126,"count":24,"max":[1,1,1],"min":[-1,-1,-1],"type":"VEC3"},{"bufferView":11,"componentType":5126,"count":24,"max":[1,1],"min":[0,0],"type":"VEC2"},{"bufferView":12,"componentType":5123,"count":6,"max":[3],"min":[0],"type":"SCALAR"},{"bufferView":13,"componentType":5123,"count":6,"max":[7],"min":[4],"type":"SCALAR"},{"bufferView":14,"componentType":5123,"count":6,"max":[11],"min":[8],"type":"SCALAR"},{"bufferView":15,"componentType":5123,"count":6,"max":[15],"min":[12],"type":"SCALAR"},{"bufferView":16,"componentType":5123,"count":6,"max":[19],"min":[16],"type":"SCALAR"},{"bufferView":17,"componentType":5123,"count":6,"max":[23],"min":[20],"type":"SCALAR"},{"bufferView":18,"componentType":5126,"count":24,"max":[-0.0625,0.75,0.0625],"min":[-0.1875,0.375,-0.0625],"type":"VEC3"},{"bufferView":19,"componentType":5126,"count":24,"max":[1,1,1],"min":[-1,-1,-1],"type":"VEC3"},{"bufferView":20,"componentType":5126,"count":24,"max":[0.75,0.75],"min":[0.125,0.1875],"type":"VEC2"},{"bufferView":21,"componentType":5123,"count":36,"max":[23],"min":[0],"type":"SCALAR"},{"bufferView":22,"componentType":5126,"count":24,"max":[0.25,0.75,0.09375],"min":[-0.0625,0.4375,-0.09375],"type":"VEC3"},{"bufferView":23,"componentType":5126,"count":24,"max":[1,1,1],"min":[-1,-1,-1],"type":"VEC3"},{"bufferView":24,"componentType":5126,"count":24,"max":[0.6875,0.53125],"min":[0.1875,0.1875],"type":"VEC2"},{"bufferView":25,"componentType":5123,"count":36,"max":[23],"min":[0],"type":"SCALAR"},{"bufferView":26,"componentType":5126,"count":24,"max":[0.234375,0.4375,0.0625],"min":[0.109375,0.1875,-0.0625],"type":"VEC3"},{"bufferView":27,"componentType":5126,"count":24,"max":[1,1,1],"min":[-1,-1,-1],"type":"VEC3"},{"bufferView":28,"componentType":5126,"count":24,"max":[0.75,0.75],"min":[0.59375,0],"type":"VEC2"},{"bufferView":29,"componentType":5123,"count":36,"max":[23],"min":[0],"type":"SCALAR"},{"bufferView":30,"componentType":5126,"count":24,"max":[0.078125,0.4375,0.0625],"min":[-0.046875,0.1875,-0.0625],"type":"VEC3"},{"bufferView":31,"componentType":5126,"count":24,"max":[1,1,1],"min":[-1,-1,-1],"type":"VEC3"},{"bufferView":32,"componentType":5126,"count":24,"max":[0.71875,0.6875],"min":[0.375,0.125],"type":"VEC2"},{"bufferView":33,"componentType":5123,"count":36,"max":[23],"min":[0],"type":"SCALAR"},{"bufferView":34,"componentType":5126,"count":24,"max":[0.375,0.75,0.0625],"min":[0.25,0.375,-0.0625],"type":"VEC3"},{"bufferView":35,"componentType":5126,"count":24,"max":[1,1,1],"min":[-1,-1,-1],"type":"VEC3"},{"bufferView":36,"componentType":5126,"count":24,"max":[0.75,0.75],"min":[0,0],"type":"VEC2"},{"bufferView":37,"componentType":5123,"count":36,"max":[23],"min":[0],"type":"SCALAR"},{"bufferView":38,"componentType":5126,"count":16,"max":[0.916670024394989],"min":[0],"type":"SCALAR"},{"bufferView":39,"componentType":5126,"count":16,"max":[0,0,0.02181488461792469,1],"min":[0,0,-0.04361938685178757,0.9990482330322266],"type":"VEC4"},{"bufferView":40,"componentType":5126,"count":1,"max":[0],"min":[0],"type":"SCALAR"},{"bufferView":41,"componentType":5126,"count":1,"max":[0,0.56640625,0],"min":[0,0.56640625,0],"type":"VEC3"},{"bufferView":42,"componentType":5126,"count":1,"max":[0],"min":[0],"type":"SCALAR"},{"bufferView":43,"componentType":5126,"count":1,"max":[1,1,1],"min":[1,1,1],"type":"VEC3"},{"bufferView":44,"componentType":5126,"count":23,"max":[1.2666699886322021],"min":[0],"type":"SCALAR"},{"bufferView":45,"componentType":5126,"count":23,"max":[0,0,-0.02181488461792469,0.9997619986534119],"min":[0,0,-0.9911408424377441,0.1328151971101761],"type":"VEC4"},{"bufferView":46,"componentType":5126,"count":23,"max":[1.2666699886322021],"min":[0],"type":"SCALAR"},{"bufferView":47,"componentType":5126,"count":23,"max":[-0.15625,0.5625,0],"min":[-0.27437499165534973,0.5,0],"type":"VEC3"},{"bufferView":48,"componentType":5126,"count":1,"max":[0],"min":[0],"type":"SCALAR"},{"bufferView":49,"componentType":5126,"count":1,"max":[1,1,1],"min":[1,1,1],"type":"VEC3"},{"bufferView":50,"componentType":5126,"count":12,"max":[0.6000000238418579],"min":[0],"type":"SCALAR"},{"bufferView":51,"componentType":5126,"count":12,"max":[0,0,0.06540312618017197,0.9997619986534119],"min":[0,0,0.02181488461792469,0.9978589415550232],"type":"VEC4"},{"bufferView":52,"componentType":5126,"count":1,"max":[0],"min":[0],"type":"SCALAR"},{"bufferView":53,"componentType":5126,"count":1,"max":[0.15625,0.5625,0],"min":[0.15625,0.5625,0],"type":"VEC3"},{"bufferView":54,"componentType":5126,"count":1,"max":[0],"min":[0],"type":"SCALAR"},{"bufferView":55,"componentType":5126,"count":1,"max":[1,1,1],"min":[1,1,1],"type":"VEC3"},{"bufferView":56,"componentType":5126,"count":1,"max":[0],"min":[0],"type":"SCALAR"},{"bufferView":57,"componentType":5126,"count":1,"max":[0,0,-0.02181488461792469,0.9997619986534119],"min":[0,0,-0.02181488461792469,0.9997619986534119],"type":"VEC4"},{"bufferView":58,"componentType":5126,"count":1,"max":[0],"min":[0],"type":"SCALAR"},{"bufferView":59,"componentType":5126,"count":1,"max":[-0.078125,0.25,0],"min":[-0.078125,0.25,0],"type":"VEC3"},{"bufferView":60,"componentType":5126,"count":1,"max":[0],"min":[0],"type":"SCALAR"},{"bufferView":61,"componentType":5126,"count":1,"max":[1,1,1],"min":[1,1,1],"type":"VEC3"},{"bufferView":62,"componentType":5126,"count":1,"max":[0],"min":[0],"type":"SCALAR"},{"bufferView":63,"componentType":5126,"count":1,"max":[0,0,0.02181488461792469,0.9997619986534119],"min":[0,0,0.02181488461792469,0.9997619986534119],"type":"VEC4"},{"bufferView":64,"componentType":5126,"count":1,"max":[0],"min":[0],"type":"SCALAR"},{"bufferView":65,"componentType":5126,"count":1,"max":[0.078125,0.25,0],"min":[0.078125,0.25,0],"type":"VEC3"},{"bufferView":66,"componentType":5126,"count":1,"max":[0],"min":[0],"type":"SCALAR"},{"bufferView":67,"componentType":5126,"count":1,"max":[1,1,1],"min":[1,1,1],"type":"VEC3"},{"bufferView":68,"componentType":5126,"count":1,"max":[0],"min":[0],"type":"SCALAR"},{"bufferView":69,"componentType":5126,"count":1,"max":[0,0,0,1],"min":[0,0,0,1],"type":"VEC4"},{"bufferView":70,"componentType":5126,"count":1,"max":[0],"min":[0],"type":"SCALAR"},{"bufferView":71,"componentType":5126,"count":1,"max":[0,0.40625,0],"min":[0,0.40625,0],"type":"VEC3"},{"bufferView":72,"componentType":5126,"count":1,"max":[0],"min":[0],"type":"SCALAR"},{"bufferView":73,"componentType":5126,"count":1,"max":[1,1,1],"min":[1,1,1],"type":"VEC3"},{"bufferView":74,"componentType":5126,"count":45,"max":[2.5],"min":[0],"type":"SCALAR"},{"bufferView":75,"componentType":5126,"count":45,"max":[0,0,0.01213565282523632,1],"min":[0,0,-0.021942932158708572,0.9997591972351074],"type":"VEC4"},{"bufferView":76,"componentType":5126,"count":2,"max":[2.5],"min":[0],"type":"SCALAR"},{"bufferView":77,"componentType":5126,"count":2,"max":[0,0.56640625,0],"min":[0,0.56640625,0],"type":"VEC3"},{"bufferView":78,"componentType":5126,"count":2,"max":[2.5],"min":[0],"type":"SCALAR"},{"bufferView":79,"componentType":5126,"count":2,"max":[1,1,1],"min":[1,1,1],"type":"VEC3"},{"bufferView":80,"componentType":5126,"count":46,"max":[2.5],"min":[0],"type":"SCALAR"},{"bufferView":81,"componentType":5126,"count":46,"max":[0,0,-0.013449563644826412,0.9999095797538757],"min":[0,0,-0.043644748628139496,0.9990471005439758],"type":"VEC4"},{"bufferView":82,"componentType":5126,"count":2,"max":[2.5],"min":[0],"type":"SCALAR"},{"bufferView":83,"componentType":5126,"count":2,"max":[-0.15625,0.5625,0],"min":[-0.15625,0.5625,0],"type":"VEC3"},{"bufferView":84,"componentType":5126,"count":2,"max":[2.5],"min":[0],"type":"SCALAR"},{"bufferView":85,"componentType":5126,"count":2,"max":[1,1,1],"min":[1,1,1],"type":"VEC3"},{"bufferView":86,"componentType":5126,"count":46,"max":[2.5],"min":[0],"type":"SCALAR"},{"bufferView":87,"componentType":5126,"count":46,"max":[0,0,0.043644748628139496,0.9999095797538757],"min":[0,0,0.013449563644826412,0.9990471005439758],"type":"VEC4"},{"bufferView":88,"componentType":5126,"count":2,"max":[2.5],"min":[0],"type":"SCALAR"},{"bufferView":89,"componentType":5126,"count":2,"max":[0.15625,0.5625,0],"min":[0.15625,0.5625,0],"type":"VEC3"},{"bufferView":90,"componentType":5126,"count":2,"max":[2.5],"min":[0],"type":"SCALAR"},{"bufferView":91,"componentType":5126,"count":2,"max":[1,1,1],"min":[1,1,1],"type":"VEC3"},{"bufferView":92,"componentType":5126,"count":2,"max":[2.5],"min":[0],"type":"SCALAR"},{"bufferView":93,"componentType":5126,"count":2,"max":[0,0,-0.02181488461792469,0.9997619986534119],"min":[0,0,-0.02181488461792469,0.9997619986534119],"type":"VEC4"},{"bufferView":94,"componentType":5126,"count":2,"max":[2.5],"min":[0],"type":"SCALAR"},{"bufferView":95,"componentType":5126,"count":2,"max":[-0.078125,0.25,0],"min":[-0.078125,0.25,0],"type":"VEC3"},{"bufferView":96,"componentType":5126,"count":2,"max":[2.5],"min":[0],"type":"SCALAR"},{"bufferView":97,"componentType":5126,"count":2,"max":[1,1,1],"min":[1,1,1],"type":"VEC3"},{"bufferView":98,"componentType":5126,"count":2,"max":[2.5],"min":[0],"type":"SCALAR"},{"bufferView":99,"componentType":5126,"count":2,"max":[0,0,0.02181488461792469,0.9997619986534119],"min":[0,0,0.02181488461792469,0.9997619986534119],"type":"VEC4"},{"bufferView":100,"componentType":5126,"count":2,"max":[2.5],"min":[0],"type":"SCALAR"},{"bufferView":101,"componentType":5126,"count":2,"max":[0.078125,0.25,0],"min":[0.078125,0.25,0],"type":"VEC3"},{"bufferView":102,"componentType":5126,"count":2,"max":[2.5],"min":[0],"type":"SCALAR"},{"bufferView":103,"componentType":5126,"count":2,"max":[1,1,1],"min":[1,1,1],"type":"VEC3"},{"bufferView":104,"componentType":5126,"count":2,"max":[2.5],"min":[0],"type":"SCALAR"},{"bufferView":105,"componentType":5126,"count":2,"max":[0,0,0,1],"min":[0,0,0,1],"type":"VEC4"},{"bufferView":106,"componentType":5126,"count":2,"max":[2.5],"min":[0],"type":"SCALAR"},{"bufferView":107,"componentType":5126,"count":2,"max":[0,0.40625,0],"min":[0,0.40625,0],"type":"VEC3"},{"bufferView":108,"componentType":5126,"count":2,"max":[2.5],"min":[0],"type":"SCALAR"},{"bufferView":109,"componentType":5126,"count":2,"max":[1,1,1],"min":[1,1,1],"type":"VEC3"}],"materials":[{"pbrMetallicRoughness":{"metallicFactor":0,"roughnessFactor":1,"baseColorTexture":{"index":0}},"alphaMode":"MASK","alphaCutoff":0.05,"doubleSided":true},{"pbrMetallicRoughness":{"metallicFactor":0,"roughnessFactor":1,"baseColorTexture":{"index":1}},"alphaMode":"MASK","alphaCutoff":0.05,"doubleSided":true},{"pbrMetallicRoughness":{"metallicFactor":0,"roughnessFactor":1},"alphaMode":"MASK","alphaCutoff":0.05,"doubleSided":true}],"textures":[{"sampler":0,"source":0,"name":"base_texture.png"},{"sampler":1,"source":1,"name":"texture-wb.png"}],"samplers":[{"magFilter":9728,"minFilter":9728,"wrapS":33071,"wrapT":33071},{"magFilter":9728,"minFilter":9728,"wrapS":33071,"wrapT":33071}],"images":[{"mimeType":"image/png","uri":"data:image/png;base64,"},{"mimeType":"image/png","uri":"data:image/png;base64,"}],"meshes":[{"primitives":[{"mode":4,"attributes":{"POSITION":0,"NORMAL":1,"TEXCOORD_0":2},"indices":3,"material":0},{"mode":4,"attributes":{"POSITION":0,"NORMAL":1,"TEXCOORD_0":2},"indices":4,"material":1}]},{"primitives":[{"mode":4,"attributes":{"POSITION":5,"NORMAL":6,"TEXCOORD_0":7},"indices":8,"material":0}]},{"primitives":[{"mode":4,"attributes":{"POSITION":9,"NORMAL":10,"TEXCOORD_0":11},"indices":12,"material":2},{"mode":4,"attributes":{"POSITION":9,"NORMAL":10,"TEXCOORD_0":11},"indices":13,"material":2},{"mode":4,"attributes":{"POSITION":9,"NORMAL":10,"TEXCOORD_0":11},"indices":14,"material":2},{"mode":4,"attributes":{"POSITION":9,"NORMAL":10,"TEXCOORD_0":11},"indices":15,"material":2},{"mode":4,"attributes":{"POSITION":9,"NORMAL":10,"TEXCOORD_0":11},"indices":16,"material":0},{"mode":4,"attributes":{"POSITION":9,"NORMAL":10,"TEXCOORD_0":11},"indices":17,"material":1}]},{"primitives":[{"mode":4,"attributes":{"POSITION":18,"NORMAL":19,"TEXCOORD_0":20},"indices":21,"material":0}]},{"primitives":[{"mode":4,"attributes":{"POSITION":22,"NORMAL":23,"TEXCOORD_0":24},"indices":25,"material":0}]},{"primitives":[{"mode":4,"attributes":{"POSITION":26,"NORMAL":27,"TEXCOORD_0":28},"indices":29,"material":0}]},{"primitives":[{"mode":4,"attributes":{"POSITION":30,"NORMAL":31,"TEXCOORD_0":32},"indices":33,"material":0}]},{"primitives":[{"mode":4,"attributes":{"POSITION":34,"NORMAL":35,"TEXCOORD_0":36},"indices":37,"material":0}]}],"animations":[{"name":"wave","samplers":[{"input":38,"output":39,"interpolation":"LINEAR"},{"input":40,"output":41,"interpolation":"LINEAR"},{"input":42,"output":43,"interpolation":"LINEAR"},{"input":44,"output":45,"interpolation":"LINEAR"},{"input":46,"output":47,"interpolation":"LINEAR"},{"input":48,"output":49,"interpolation":"LINEAR"},{"input":50,"output":51,"interpolation":"LINEAR"},{"input":52,"output":53,"interpolation":"LINEAR"},{"input":54,"output":55,"interpolation":"LINEAR"},{"input":56,"output":57,"interpolation":"LINEAR"},{"input":58,"output":59,"interpolation":"LINEAR"},{"input":60,"output":61,"interpolation":"LINEAR"},{"input":62,"output":63,"interpolation":"LINEAR"},{"input":64,"output":65,"interpolation":"LINEAR"},{"input":66,"output":67,"interpolation":"LINEAR"},{"input":68,"output":69,"interpolation":"LINEAR"},{"input":70,"output":71,"interpolation":"LINEAR"},{"input":72,"output":73,"interpolation":"LINEAR"}],"channels":[{"sampler":0,"target":{"node":3,"path":"rotation"}},{"sampler":1,"target":{"node":3,"path":"translation"}},{"sampler":2,"target":{"node":3,"path":"scale"}},{"sampler":3,"target":{"node":5,"path":"rotation"}},{"sampler":4,"target":{"node":5,"path":"translation"}},{"sampler":5,"target":{"node":5,"path":"scale"}},{"sampler":6,"target":{"node":13,"path":"rotation"}},{"sampler":7,"target":{"node":13,"path":"translation"}},{"sampler":8,"target":{"node":13,"path":"scale"}},{"sampler":9,"target":{"node":11,"path":"rotation"}},{"sampler":10,"target":{"node":11,"path":"translation"}},{"sampler":11,"target":{"node":11,"path":"scale"}},{"sampler":12,"target":{"node":9,"path":"rotation"}},{"sampler":13,"target":{"node":9,"path":"translation"}},{"sampler":14,"target":{"node":9,"path":"scale"}},{"sampler":15,"target":{"node":7,"path":"rotation"}},{"sampler":16,"target":{"node":7,"path":"translation"}},{"sampler":17,"target":{"node":7,"path":"scale"}}]},{"name":"idle","samplers":[{"input":74,"output":75,"interpolation":"LINEAR"},{"input":76,"output":77,"interpolation":"LINEAR"},{"input":78,"output":79,"interpolation":"LINEAR"},{"input":80,"output":81,"interpolation":"LINEAR"},{"input":82,"output":83,"interpolation":"LINEAR"},{"input":84,"output":85,"interpolation":"LINEAR"},{"input":86,"output":87,"interpolation":"LINEAR"},{"input":88,"output":89,"interpolation":"LINEAR"},{"input":90,"output":91,"interpolation":"LINEAR"},{"input":92,"output":93,"interpolation":"LINEAR"},{"input":94,"output":95,"interpolation":"LINEAR"},{"input":96,"output":97,"interpolation":"LINEAR"},{"input":98,"output":99,"interpolation":"LINEAR"},{"input":100,"output":101,"interpolation":"LINEAR"},{"input":102,"output":103,"interpolation":"LINEAR"},{"input":104,"output":105,"interpolation":"LINEAR"},{"input":106,"output":107,"interpolation":"LINEAR"},{"input":108,"output":109,"interpolation":"LINEAR"}],"channels":[{"sampler":0,"target":{"node":3,"path":"rotation"}},{"sampler":1,"target":{"node":3,"path":"translation"}},{"sampler":2,"target":{"node":3,"path":"scale"}},{"sampler":3,"target":{"node":5,"path":"rotation"}},{"sampler":4,"target":{"node":5,"path":"translation"}},{"sampler":5,"target":{"node":5,"path":"scale"}},{"sampler":6,"target":{"node":13,"path":"rotation"}},{"sampler":7,"target":{"node":13,"path":"translation"}},{"sampler":8,"target":{"node":13,"path":"scale"}},{"sampler":9,"target":{"node":11,"path":"rotation"}},{"sampler":10,"target":{"node":11,"path":"translation"}},{"sampler":11,"target":{"node":11,"path":"scale"}},{"sampler":12,"target":{"node":9,"path":"rotation"}},{"sampler":13,"target":{"node":9,"path":"translation"}},{"sampler":14,"target":{"node":9,"path":"scale"}},{"sampler":15,"target":{"node":7,"path":"rotation"}},{"sampler":16,"target":{"node":7,"path":"translation"}},{"sampler":17,"target":{"node":7,"path":"scale"}}]}]}